<?xml version="1.0" encoding="UTF-8" standalone="no"?>
<!-- Created with Inkscape (http://www.inkscape.org/) -->

<svg
   xmlns:dc="http://purl.org/dc/elements/1.1/"
   xmlns:cc="http://creativecommons.org/ns#"
   xmlns:rdf="http://www.w3.org/1999/02/22-rdf-syntax-ns#"
   xmlns:svg="http://www.w3.org/2000/svg"
   xmlns="http://www.w3.org/2000/svg"
   xmlns:sodipodi="http://sodipodi.sourceforge.net/DTD/sodipodi-0.dtd"
   xmlns:inkscape="http://www.inkscape.org/namespaces/inkscape"
   version="1.1"
   id="svg8832"
   xml:space="preserve"
   width="354.75732"
   height="387.172"
   viewBox="0 0 354.75732 387.172"
   sodipodi:docname="logo MAKALÚ.svg"
   inkscape:version="0.92.2 (5c3e80d, 2017-08-06)"><metadata
     id="metadata8838"><rdf:RDF><cc:Work
         rdf:about=""><dc:format>image/svg+xml</dc:format><dc:type
           rdf:resource="http://purl.org/dc/dcmitype/StillImage" /><dc:title></dc:title></cc:Work></rdf:RDF></metadata><defs
     id="defs8836"><clipPath
       clipPathUnits="userSpaceOnUse"
       id="clipPath8848"><path
         d="M 0,290.379 H 266.068 V 0 H 0 Z"
         id="path8846"
         inkscape:connector-curvature="0" /></clipPath></defs><sodipodi:namedview
     pagecolor="#ffffff"
     bordercolor="#666666"
     borderopacity="1"
     objecttolerance="10"
     gridtolerance="10"
     guidetolerance="10"
     inkscape:pageopacity="0"
     inkscape:pageshadow="2"
     inkscape:window-width="1366"
     inkscape:window-height="705"
     id="namedview8834"
     showgrid="false"
     inkscape:zoom="1.31"
     inkscape:cx="177.37866"
     inkscape:cy="223.19507"
     inkscape:window-x="-8"
     inkscape:window-y="-8"
     inkscape:window-maximized="1"
     inkscape:current-layer="g8840" /><g
     id="g8840"
     inkscape:groupmode="layer"
     inkscape:label="logo MAKALÚ"
     transform="matrix(1.3333333,0,0,-1.3333333,0,387.172)"><g
       id="g8842"><g
         id="g8844"
         clip-path="url(#clipPath8848)"><g
           id="g8850"
           transform="translate(56.5586,136.6641)"><path
             d="M 0,0 0.819,0.818 C 0.516,0.582 0.241,0.313 0,0"
             style="fill:#ea7624;fill-opacity:1;fill-rule:nonzero;stroke:none"
             id="path8852"
             inkscape:connector-curvature="0" /></g><g
           id="g8854"
           transform="translate(57.3774,137.4824)"><path
             d="M 0,0 C 0.079,0.063 0.165,0.116 0.248,0.174 0.3,0.25 0.347,0.328 0.402,0.402 Z"
             style="fill:#ea7624;fill-opacity:1;fill-rule:nonzero;stroke:none"
             id="path8856"
             inkscape:connector-curvature="0" /></g><g
           id="g8858"
           transform="translate(247.0977,132.5898)"><path
             d="m 0,0 c -18.641,0.031 -36.796,0.061 -55.2,0.091 0.088,1.048 0.165,2.097 0.218,3.149 0.332,6.696 4.164,35.032 -4.489,36.671 -2.304,0.437 -6.308,-2.07 -8.558,-2.549 -3.477,-0.74 -7.03,-0.998 -10.582,-1.517 -7.727,-1.133 -15.452,-2.75 -23.209,-4.094 -8.27,-1.432 -16.361,-2.584 -24.422,-4.874 -9.035,-2.564 -17.746,-6.576 -26.852,-8.984 -6.594,-1.745 -12.158,-3.625 -18.294,-6.493 -3.161,-1.476 -6.643,-3.002 -10.094,-4.08 -2.464,-0.768 -5.827,-0.757 -7.99,-2.254 -1.017,-1.477 -1.563,-3.234 -1.496,-4.902 -0.937,-0.007 -1.842,-0.015 -2.7,-0.023 -3.341,-0.055 -6.757,-0.11 -10.156,-0.166 1.569,-0.043 3.028,-0.084 4.307,-0.121 -3.456,0.011 -6.909,0.023 -8.236,-0.018 -7.356,-0.084 -3.19,-0.207 -0.36,-0.369 2.035,-0.072 -0.717,-0.174 2.47,-0.248 -2.296,0.006 -3.449,0.01 -5.755,0.017 -0.264,-0.064 7.09,0.022 5.492,-0.084 -2.227,0.002 -4.698,0.002 -6.996,0.002 0.797,-0.09 7.97,-0.049 7.615,-0.134 -1.24,-0.018 -6.464,0.13 -6.908,0.023 -0.088,-0.022 2.215,-0.029 3.364,-0.033 -7.085,-0.022 -10.987,-0.117 -4.521,-0.248 -2.242,0.013 -5.418,0.033 -7.794,0.049 l 0.018,-0.002 c 1.183,-0.01 3.23,-0.026 4.323,-0.036 -1.345,0.004 -2.696,0.008 -4.043,0.014 0.219,-0.016 0.458,-0.031 0.705,-0.047 1.011,-0.01 2.021,-0.021 3.069,-0.031 -0.893,0.002 -1.787,0.006 -2.686,0.008 0.692,-0.031 1.46,-0.067 2.287,-0.106 3.19,-0.076 6.244,-0.183 7.968,-0.189 6.288,-0.026 12.587,-0.052 18.884,-0.077 0.413,-1.151 1.193,-2.176 2.422,-2.919 4.76,-2.877 12.599,-3.334 18,-4.385 6.211,-1.209 12.389,-4.184 18.406,-6.006 12.84,-3.889 27.961,-2.029 41.029,-4.148 13.383,-2.174 25.313,-5.711 39.481,-5.711 2.814,0 7.24,-0.733 9.678,0.498 2.98,1.506 3.185,4.865 3.843,7.959 1.057,4.957 1.943,10.018 2.443,15.138 5.238,-0.016 11.754,-0.039 16.778,-0.054 -0.793,0.232 11.83,0.322 9.311,0.558 3.451,-0.009 8.634,-0.027 8.9,0.037 0.803,0.194 3.459,0.415 12.627,0.516 3.588,0.022 9.098,-0.07 10.361,-0.033 C 4.65,-0.146 -1.992,-0.059 0,0"
             style="fill:#ea7624;fill-opacity:1;fill-rule:nonzero;stroke:none"
             id="path8860"
             inkscape:connector-curvature="0" /></g><g
           id="g8862"
           transform="translate(92.7832,186.7271)"><path
             d="m 0,0 c 0,-13.314 -1.998,-28.475 2.929,-40.704 5.274,-13.093 19.599,-12.209 31.669,-12.209 13.656,0 27.502,-0.175 36.527,11.5 7.314,9.463 9.469,22.798 9.463,34.495 -0.002,5.059 -0.77,13.404 -4.377,16.789 -4.76,4.468 -12.664,4.374 -18.822,4.374 C 43.771,14.245 30.738,12.2 17.918,10.981 11.603,10.381 -2.707,8.527 0.813,-1.221"
             style="fill:#009ba4;fill-opacity:1;fill-rule:evenodd;stroke:none"
             id="path8864"
             inkscape:connector-curvature="0" /></g><g
           id="g8866"
           transform="translate(130.6348,204.6362)"><path
             d="m 0,0 c -2.875,4.977 6.578,14.326 9.057,18.305 2.351,3.774 6.867,13.562 11.681,14.683 4.938,1.152 11.147,-7.025 12.231,-11.009 1.742,-6.413 -5.573,-8.678 -9.758,-12.2 C 19.369,6.545 15.633,4.156 11.078,2.352 8.844,1.467 -2.854,-3.395 -0.813,2.441"
             style="fill:#f7be29;fill-opacity:1;fill-rule:evenodd;stroke:none"
             id="path8868"
             inkscape:connector-curvature="0" /></g><g
           id="g8870"
           transform="translate(117.6113,214.812)"><path
             d="m 0,0 c -7.148,1.764 -7.655,6.184 -9.263,13.024 -1.489,6.348 -3.633,12.659 -4.598,19.129 -1.022,6.849 -2.018,13.985 5.719,16.371 6.119,1.887 13.197,1.903 18.814,-1.626 C 17.73,42.466 12.108,31.19 10.266,24.423 7.769,15.258 3.711,8.236 -0.408,0"
             style="fill:#f7be29;fill-opacity:1;fill-rule:evenodd;stroke:none"
             id="path8872"
             inkscape:connector-curvature="0" /></g><g
           id="g8874"
           transform="translate(85.8633,140.7344)"><path
             d="m 0,0 c -7.34,1.027 -4.91,-13.678 3.683,-9.359 2.524,1.269 3.981,5.117 2.737,7.64 -1.547,3.141 -5.121,2.93 -8.049,2.94"
             style="fill:#f7be29;fill-opacity:1;fill-rule:evenodd;stroke:none"
             id="path8876"
             inkscape:connector-curvature="0" /></g><g
           id="g8878"
           transform="translate(134.7051,130.5586)"><path
             d="m 0,0 c -2.014,2.494 -8.263,4.658 -8.976,-0.385 -0.627,-4.426 6.587,-6.072 9.72,-4.836 0.879,2.416 0.459,4.336 -1.558,6.035"
             style="fill:#f7be29;fill-opacity:1;fill-rule:evenodd;stroke:none"
             id="path8880"
             inkscape:connector-curvature="0" /></g><g
           id="g8882"
           transform="translate(174.5938,128.5234)"><path
             d="m 0,0 c -11.111,1.135 -10.973,-12.283 -1.223,-13.848 5.506,-0.882 7.854,2.819 7.032,7.743 -0.776,4.656 -3.422,6.041 -7.844,6.513"
             style="fill:#f7be29;fill-opacity:1;fill-rule:evenodd;stroke:none"
             id="path8884"
             inkscape:connector-curvature="0" /></g><g
           id="g8886"
           transform="translate(181.9199,161.4927)"><path
             d="M 0,0 C -6.439,4.164 -11.205,-7.715 -3.752,-11.1 4.195,-14.709 6.574,2.438 -2.035,0.814"
             style="fill:#f7be29;fill-opacity:1;fill-rule:evenodd;stroke:none"
             id="path8888"
             inkscape:connector-curvature="0" /></g><g
           id="g8890"
           transform="translate(165.0313,191.1763)"><path
             d="m 0,0 c -4.445,-2.793 -9.371,-4.377 -14.523,-5.07 -8.379,-1.129 -16.817,-0.909 -25.246,-0.604 -4.96,0.178 -9.942,0.137 -14.88,0.57 -3.126,0.272 -6.208,1.174 -9.275,1.942 -0.623,0.154 -1.619,1.281 -1.533,1.424 0.58,0.986 1.228,2.24 2.179,2.64 2.784,1.176 5.721,1.994 8.729,2.996 0.325,-2.658 1.832,-3.711 3.731,-4.281 5.88,-1.775 11.959,-1.787 18.021,-1.904 4.055,-0.078 8.109,-0.274 12.164,-0.203 3.317,0.056 6.596,0.439 9.098,3.117 0.928,0.994 1.232,1.711 -0.113,2.512 -1.547,0.918 -3.071,1.873 -4.897,2.988 2.328,-0.408 4.477,-0.729 6.602,-1.168 C -6.766,4.301 -3.594,3.596 -0.439,2.82 0.162,2.674 1.139,2.076 1.111,1.756 1.061,1.133 0.553,0.348 0,0 m -49.334,3.412 c 7.974,3.7 16.619,1.789 24.898,2.931 0.032,-0.173 0.061,-0.347 0.092,-0.519 -0.609,-0.06 -1.222,-0.084 -1.822,-0.189 -0.629,-0.112 -1.24,-0.309 -1.863,-0.453 -0.373,-0.086 -0.844,-0.028 -1.112,-0.237 -0.621,-0.484 -1.14,-1.094 -1.701,-1.652 0.85,-0.504 1.844,-1.588 2.526,-1.418 3.519,0.877 7.035,1.262 10.625,0.791 1.17,-0.154 2.316,-0.473 3.472,-0.717 0.03,-0.219 0.059,-0.435 0.088,-0.654 -0.996,-0.42 -1.974,-1.153 -2.994,-1.211 -5.172,-0.297 -10.355,-0.617 -15.529,-0.541 -3.924,0.058 -7.857,0.57 -11.745,1.144 -1.734,0.256 -3.369,1.164 -5.046,1.776 0.037,0.316 0.074,0.633 0.111,0.949 M 4.258,-15.705 C 4.256,-10.779 3.959,-5.854 3.77,-0.93 3.688,1.25 3.021,3.338 1.205,4.535 -0.662,5.762 -2.766,6.901 -4.92,7.349 c -3.855,0.806 -7.814,1.203 -11.75,1.511 -4.111,0.321 -8.268,0.666 -12.365,0.406 -6.319,-0.4 -12.694,-0.451 -18.862,-2.433 -3.134,-1.007 -6.527,-1.175 -9.763,-1.896 -3.428,-0.761 -6.82,-1.677 -9.611,-4.033 -1.475,-1.246 -1.985,-4.429 -0.625,-5.187 1.351,-0.752 2.824,-1.539 4.32,-1.743 8.31,-1.128 16.623,-2.392 24.977,-3.013 8.929,-0.666 17.917,-0.541 26.755,1.18 3.498,0.681 7.219,0.986 10.16,3.48 0.543,0.461 1.348,0.615 2.385,1.066 0.106,-1.068 0.237,-1.759 0.227,-2.451 -0.03,-1.898 -0.108,-3.795 -0.188,-5.691 -0.177,-4.237 -0.172,-8.49 -0.599,-12.701 -0.528,-5.166 -1.215,-10.329 -3.539,-15.112 -1.563,-3.213 -3.407,-6.156 -6.856,-7.545 -7.846,-3.158 -15.984,-5.146 -24.482,-4.773 -4.182,0.181 -8.342,1.025 -12.49,1.712 -2.67,0.442 -5.317,1.067 -7.938,1.75 -4.492,1.168 -7.047,4.782 -9.205,8.356 -2.357,3.904 -2.232,8.601 -2.508,13.076 -0.379,6.133 -0.726,12.27 -1.162,18.399 -0.127,1.785 -0.953,3.305 -2.492,4.336 -2.745,1.84 -5.586,3.416 -8.94,3.937 -7.453,1.161 -12.988,-2.021 -15.878,-9.037 -1.1,-2.672 -0.418,-5.181 -0.174,-7.847 0.365,-4.043 2.783,-6.725 5.48,-9.016 5.769,-4.897 13.86,-2.584 16.336,4.471 0.959,2.734 1.054,5.609 -0.625,8.123 -1.814,2.717 -4.66,2.545 -7.4,1.961 -0.914,-0.196 -2.008,-0.871 -2.45,-1.649 -0.712,-1.261 -0.365,-2.644 0.959,-3.517 1.452,-0.953 3.451,-0.746 4.801,0.369 0.58,0.478 1.235,0.865 2.01,1.398 0.611,-2.535 0.218,-4.428 -0.642,-6.472 -1.512,-3.606 -1.998,-4.254 -5.866,-4.061 -1.765,0.088 -3.727,0.217 -5.213,1.031 -4.531,2.491 -5.262,6.864 -5.052,11.567 0.164,3.685 1.763,6.361 5.118,8.058 7.669,3.883 16.631,0.143 18.379,-7.918 0.528,-2.447 0.489,-5.072 0.358,-7.595 -0.342,-6.684 -0.106,-13.278 1.709,-19.778 1.59,-5.695 4.895,-9.938 10.444,-11.983 3.599,-1.328 7.394,-2.326 11.187,-2.865 3.826,-0.543 7.779,-0.631 11.64,-0.387 4.916,0.309 9.821,1.022 14.688,1.819 2.275,0.371 4.469,1.301 6.664,2.076 0.736,0.26 1.312,0.973 2.051,1.227 4.211,1.447 7.162,4.578 9.759,7.871 2.997,3.799 4.079,8.611 4.823,13.27 0.691,4.324 0.625,8.795 0.623,13.199"
             style="fill:#8b4836;fill-opacity:1;fill-rule:evenodd;stroke:none"
             id="path8892"
             inkscape:connector-curvature="0" /></g><g
           id="g8894"
           transform="translate(97.0645,147.5723)"><path
             d="m 0,0 c -0.584,-0.314 -1.072,-0.676 -1.619,-0.855 -7.957,-2.631 -15.957,-5.141 -23.866,-7.909 -2.464,-0.863 -4.714,-2.363 -7.001,-3.677 -0.525,-0.301 -0.795,-1.041 -1.182,-1.579 0.547,-0.353 1.051,-0.859 1.648,-1.033 5.36,-1.556 10.712,-3.144 16.116,-4.541 5.144,-1.328 10.324,-2.543 15.531,-3.613 6.403,-1.318 12.859,-2.389 19.276,-3.654 3.28,-0.649 6.485,-1.774 9.784,-2.182 5.381,-0.664 10.833,-0.768 16.223,-1.391 5.404,-0.623 10.77,-1.611 16.156,-2.398 2.52,-0.367 5.043,-0.744 7.579,-0.93 4.474,-0.326 8.968,-0.806 13.437,-0.676 4.887,0.147 5.121,0.37 6.037,5.086 0.908,4.674 1.258,9.459 1.852,14.194 0.314,2.498 0.592,5 0.945,7.49 0.688,4.807 1.016,9.619 0.607,14.473 -0.261,3.113 -0.408,6.237 -0.669,9.349 -0.266,3.164 -0.497,3.341 -3.541,2.875 -2.084,-0.316 -4.192,-0.577 -6.227,-1.107 -1.67,-0.436 -3.217,-1.343 -4.881,-1.817 -0.836,-0.235 -2.207,-1.024 -2.598,0.429 -0.33,1.216 0.34,2.381 1.719,2.778 4.942,1.418 9.858,2.946 14.85,4.153 2.418,0.582 3.051,-0.444 2.482,-2.909 -0.203,-0.889 -0.088,-1.891 0.059,-2.813 0.322,-2.035 0.924,-4.037 1.099,-6.081 0.194,-2.223 -0.189,-4.5 0.065,-6.709 0.932,-8.164 0.228,-16.176 -1.576,-24.166 -1.045,-4.627 -1.826,-9.328 -2.43,-14.031 -0.268,-2.08 -1.17,-3.037 -3.047,-3.52 -6.135,-1.578 -12.308,-1.193 -18.486,-0.425 -3.231,0.402 -6.49,0.742 -9.658,1.455 -8.914,2.002 -18.061,1.945 -27.043,3.255 -7.157,1.045 -14.299,2.196 -21.424,3.43 -5.051,0.875 -10.09,1.854 -15.084,3 -4.057,0.932 -8.039,2.18 -12.053,3.293 -5.064,1.404 -10.158,2.719 -15.181,4.268 -2.231,0.689 -4.342,1.802 -6.438,2.861 -0.355,0.18 -0.576,1.123 -0.469,1.633 0.605,2.867 2.723,4.426 5.266,5.324 2.812,0.996 5.763,1.602 8.596,2.553 3.996,1.34 7.931,2.861 11.906,4.265 2.828,1 5.707,1.858 8.508,2.93 C -2.955,1.76 -1.511,1.506 0,0"
             style="fill:#8b4836;fill-opacity:1;fill-rule:evenodd;stroke:none"
             id="path8896"
             inkscape:connector-curvature="0" /></g><g
           id="g8898"
           transform="translate(114.998,220.0581)"><path
             d="m 0,0 c 1.174,2.787 2.23,5.201 3.207,7.646 0.897,2.246 1.746,4.51 2.539,6.793 1.012,2.923 2.088,5.835 2.877,8.82 0.877,3.303 1.432,6.689 2.187,10.025 0.532,2.357 -0.332,4.54 -2.402,4.89 -3.43,0.579 -6.91,1.039 -10.382,1.167 -2.709,0.099 -3.703,-0.93 -3.909,-3.672 C -6.082,32.983 -6.646,30.387 -5.897,27.54 -4.57,22.487 -4.064,17.227 -3.008,12.096 -2.191,8.12 -1.06,4.209 0,0 m -9.97,31.312 c -0.169,1.722 -0.349,3.441 -0.501,5.164 -0.169,1.914 0.559,3.316 2.356,4.136 4.447,2.032 9.152,1.961 13.84,1.52 1.826,-0.172 3.619,-0.952 5.373,-1.604 2.728,-1.015 4.208,-3.199 3.609,-5.976 C 13.696,29.865 12.426,25.233 11.135,20.613 10.283,17.561 9.313,14.529 8.199,11.563 7.097,8.619 5.828,5.73 4.477,2.893 3.679,1.217 2.644,-0.361 1.562,-1.873 1.301,-2.236 0.408,-2.332 -0.153,-2.256 c -2.613,0.354 -3.382,2.305 -3.909,4.549 -1.135,4.829 -2.491,9.609 -3.526,14.459 -1.027,4.808 -1.77,9.675 -2.638,14.517 0.084,0.014 0.17,0.029 0.256,0.043"
             style="fill:#8b4836;fill-opacity:1;fill-rule:evenodd;stroke:none"
             id="path8900"
             inkscape:connector-curvature="0" /></g><g
           id="g8902"
           transform="translate(136.1563,207.1519)"><path
             d="m 0,0 c 0.793,0.201 1.715,0.209 2.361,0.637 2.832,1.875 5.709,3.72 8.338,5.863 3.489,2.842 6.752,5.959 10.127,8.941 4.168,3.686 3.328,7.416 -0.607,10.552 C 19.053,26.922 17.4,27.264 16.244,25.97 14.438,23.949 12.748,21.801 11.197,19.576 8.875,16.244 6.986,12.572 4.404,9.467 2.121,6.721 1.172,3.523 0,0 m 15.912,30.583 c 3.277,0.294 6.147,-1.677 7.721,-4.929 0.535,-1.108 1.207,-2.161 1.896,-3.187 1.127,-1.684 0.916,-4.182 0.014,-6.067 C 23.551,12.232 20.002,9.693 16.453,7.117 12.977,4.592 9.607,1.887 5.938,-0.318 3.838,-1.58 1.277,-2.205 -1.16,-2.732 c -1.653,-0.358 -2.994,2.318 -2.147,4.007 2.016,3.998 4.026,7.998 6.09,11.971 1.571,3.024 3.121,6.066 4.879,8.981 1.067,1.77 2.856,3.154 3.697,4.998 1.043,2.283 2.827,2.913 4.553,3.358"
             style="fill:#8b4836;fill-opacity:1;fill-rule:evenodd;stroke:none"
             id="path8904"
             inkscape:connector-curvature="0" /></g><g
           id="g8906"
           transform="translate(176.8359,122.373)"><path
             d="M 0,0 C -0.098,1.646 -0.807,2.469 -2.072,2.4 -4.367,2.275 -6.879,-0.186 -6.691,-2.125 -6.545,-3.621 -5.422,-4.502 -3.725,-4.447 -1.586,-4.377 0.135,-2.322 0,0 m -3.711,-6.023 c -2.355,-0.192 -4.566,1.502 -4.68,3.775 -0.142,2.894 2.385,6.459 5.971,6.725 2.709,0.201 4.127,-1.452 4.479,-4.118 0.412,-3.125 -2.506,-6.072 -5.77,-6.382"
             style="fill:#8b4836;fill-opacity:1;fill-rule:evenodd;stroke:none"
             id="path8908"
             inkscape:connector-curvature="0" /></g><g
           id="g8910"
           transform="translate(176.6797,155.5684)"><path
             d="M 0,0 C 0.229,-3.357 2.219,-4.854 3.867,-3.508 4.996,-2.586 5.756,-0.779 5.941,0.723 6.076,1.805 5.211,3.248 4.363,4.113 3.949,4.535 2.059,4.344 1.711,3.834 0.781,2.471 0.324,0.785 0,0 m -1.83,-1.057 c 0.432,1.764 0.732,3.573 1.33,5.278 0.641,1.831 2.473,2.229 4.063,2.235 1.55,0.005 3.027,-0.558 3.55,-2.552 0.66,-2.517 0.838,-4.875 -0.67,-7.125 -1.25,-1.859 -3.158,-2.603 -5.15,-1.978 -1.969,0.617 -2.887,2 -3.123,4.142"
             style="fill:#8b4836;fill-opacity:1;fill-rule:evenodd;stroke:none"
             id="path8912"
             inkscape:connector-curvature="0" /></g><g
           id="g8914"
           transform="translate(134.4766,128.418)"><path
             d="M 0,0 C -1.396,1.641 -2.49,2.789 -4.289,2.303 -4.676,2.199 -5.203,1.209 -5.066,0.859 c 0.363,-0.941 1.084,-2.494 1.603,-2.47 1.1,0.05 2.16,0.947 3.463,1.611 m -3.596,4.266 c 1.893,0.127 4.58,-2.049 4.741,-3.836 0.179,-1.981 -1.493,-3.608 -3.92,-3.727 -2.522,-0.125 -3.594,1.354 -4.163,3.838 -0.333,1.457 1.364,3.814 3.342,3.725"
             style="fill:#8b4836;fill-opacity:1;fill-rule:evenodd;stroke:none"
             id="path8916"
             inkscape:connector-curvature="0" /></g><g
           id="g8918"
           transform="translate(90.2617,136.498)"><path
             d="M 0,0 C -0.047,0.309 -0.095,0.615 -0.142,0.924 -0.979,1.188 -1.81,1.631 -2.658,1.672 -3.699,1.723 -5.01,1.314 -4.668,0.047 -4.467,-0.703 -3.183,-1.615 -2.375,-1.625 -1.59,-1.633 -0.793,-0.584 0,0 m -2.629,3.605 c 2.191,0.208 3.713,-0.921 3.918,-2.906 0.23,-2.222 -1.24,-4.121 -3.317,-4.283 -1.906,-0.15 -4.228,1.611 -4.41,3.346 -0.217,2.062 1.315,3.607 3.809,3.843"
             style="fill:#8b4836;fill-opacity:1;fill-rule:evenodd;stroke:none"
             id="path8920"
             inkscape:connector-curvature="0" /></g><g
           id="g8922"
           transform="translate(158.3535,55.8496)"><path
             d="m 0,0 c 0,0.592 -0.121,1.027 -0.361,1.309 -0.239,0.279 -0.647,0.42 -1.223,0.42 h -1.248 v -6.745 h 1.271 c 0.528,0 0.92,0.135 1.176,0.409 C -0.129,-4.336 0,-3.896 0,-3.287 Z M -4.656,-16.176 V 3.576 h 3.084 c 1.156,0 2.01,-0.289 2.564,-0.863 C 1.547,2.137 1.824,1.232 1.824,0 v -3.24 c 0,-1.248 -0.273,-2.153 -0.82,-2.711 -0.547,-0.561 -1.4,-0.842 -2.557,-0.842 h -1.279 v -9.383 z"
             style="fill:#009ba4;fill-opacity:1;fill-rule:nonzero;stroke:none"
             id="path8924"
             inkscape:connector-curvature="0" /></g><path
           d="m 161.473,54.529 h 1.654 V 39.674 h -1.654 z m 0,4.897 h 1.654 v -3 h -1.654 z"
           style="fill:#009ba4;fill-opacity:1;fill-rule:nonzero;stroke:none"
           id="path8926"
           inkscape:connector-curvature="0" /><g
           id="g8928"
           transform="translate(164.6641,39.6738)"><path
             d="m 0,0 v 1.535 l 3.385,11.69 H 0.049 v 1.63 h 4.92 V 13.32 L 1.656,1.68 H 4.943 V 0 Z"
             style="fill:#009ba4;fill-opacity:1;fill-rule:nonzero;stroke:none"
             id="path8930"
             inkscape:connector-curvature="0" /></g><g
           id="g8932"
           transform="translate(170.8066,39.6738)"><path
             d="m 0,0 v 1.535 l 3.385,11.69 H 0.049 v 1.63 h 4.92 V 13.32 L 1.656,1.68 H 4.945 V 0 Z"
             style="fill:#009ba4;fill-opacity:1;fill-rule:nonzero;stroke:none"
             id="path8934"
             inkscape:connector-curvature="0" /></g><g
           id="g8936"
           transform="translate(180.7188,47.2578)"><path
             d="m 0,0 c -0.48,-0.176 -0.867,-0.365 -1.164,-0.564 -0.295,-0.2 -0.52,-0.436 -0.672,-0.707 -0.152,-0.274 -0.252,-0.581 -0.299,-0.924 -0.049,-0.346 -0.072,-0.741 -0.072,-1.19 v -1.584 c 0,-0.816 0.375,-1.222 1.127,-1.222 0.24,0 0.461,0.07 0.66,0.214 0.199,0.145 0.34,0.385 0.42,0.721 z m 0.191,-7.584 c -0.031,0.127 -0.054,0.264 -0.07,0.408 -0.017,0.143 -0.025,0.303 -0.025,0.481 -0.401,-0.737 -0.992,-1.106 -1.776,-1.106 -0.674,0 -1.195,0.186 -1.572,0.553 -0.375,0.367 -0.564,0.967 -0.564,1.801 v 2.183 c 0,0.719 0.099,1.323 0.3,1.811 0.2,0.488 0.473,0.9 0.817,1.236 0.344,0.336 0.748,0.621 1.211,0.854 C -1.023,0.867 -0.527,1.096 0,1.32 V 4.561 C 0,4.977 -0.076,5.295 -0.229,5.52 -0.381,5.744 -0.664,5.855 -1.08,5.855 -1.512,5.855 -1.799,5.744 -1.943,5.52 -2.088,5.295 -2.16,4.977 -2.16,4.561 V 1.439 h -1.463 v 3.145 c 0,0.977 0.207,1.715 0.623,2.209 0.416,0.494 1.072,0.742 1.969,0.742 1.744,0 2.615,-0.976 2.615,-2.931 V -5.877 c 0,-0.353 0.008,-0.682 0.023,-0.986 0.018,-0.305 0.049,-0.545 0.098,-0.721 z"
             style="fill:#009ba4;fill-opacity:1;fill-rule:nonzero;stroke:none"
             id="path8938"
             inkscape:connector-curvature="0" /></g><g
           id="g8940"
           transform="translate(189.2383,55.082)"><path
             d="m 0,0 c 0,-0.609 0.072,-1.213 0.219,-1.813 0.144,-0.599 0.332,-1.195 0.558,-1.787 0.366,0.479 0.67,1.016 0.918,1.608 0.246,0.592 0.369,1.303 0.369,2.135 V 1.152 C 2.064,1.615 1.992,2 1.848,2.303 1.703,2.607 1.447,2.76 1.08,2.76 0.695,2.76 0.42,2.635 0.252,2.387 0.084,2.139 0,1.76 0,1.248 Z M 0.344,-6.889 C 0.199,-7.113 0.076,-7.328 -0.02,-7.537 c -0.097,-0.207 -0.169,-0.436 -0.218,-0.684 -0.049,-0.248 -0.086,-0.523 -0.11,-0.828 -0.025,-0.305 -0.037,-0.656 -0.037,-1.055 v -1.417 c 0,-0.879 0.117,-1.504 0.352,-1.872 0.234,-0.367 0.672,-0.552 1.312,-0.552 0.592,0 1.049,0.136 1.369,0.408 z m 5.488,-8.332 c -0.129,-0.078 -0.281,-0.146 -0.457,-0.201 -0.176,-0.055 -0.418,-0.082 -0.723,-0.082 -0.289,0 -0.541,0.047 -0.756,0.143 -0.218,0.097 -0.398,0.224 -0.542,0.384 C 3.08,-15.201 2.756,-15.365 2.377,-15.469 2,-15.572 1.588,-15.625 1.139,-15.625 c -0.676,0 -1.225,0.084 -1.651,0.252 -0.424,0.168 -0.758,0.424 -0.998,0.769 -0.242,0.344 -0.41,0.772 -0.506,1.284 -0.095,0.511 -0.144,1.111 -0.144,1.799 v 1.369 c 0,0.543 0.031,1.035 0.097,1.476 0.063,0.44 0.163,0.86 0.299,1.26 0.135,0.398 0.321,0.791 0.551,1.176 0.234,0.383 0.518,0.791 0.854,1.224 -0.289,0.784 -0.514,1.436 -0.672,1.955 -0.16,0.52 -0.282,0.963 -0.362,1.332 -0.08,0.368 -0.127,0.692 -0.142,0.973 -0.018,0.279 -0.026,0.563 -0.026,0.852 v 1.199 c 0,1.152 0.202,1.976 0.6,2.473 0.4,0.496 1.057,0.744 1.969,0.744 0.48,0 0.879,-0.076 1.199,-0.229 C 2.527,4.131 2.783,3.914 2.977,3.635 3.168,3.354 3.309,3.018 3.396,2.625 3.484,2.232 3.527,1.803 3.527,1.34 v -1.395 c 0,-0.529 -0.05,-1.017 -0.156,-1.466 C 3.268,-1.969 3.123,-2.402 2.939,-2.818 2.756,-3.234 2.535,-3.646 2.279,-4.057 2.023,-4.465 1.736,-4.893 1.416,-5.342 l 2.299,-6.488 c 0.168,0.434 0.287,0.904 0.357,1.418 0.069,0.514 0.104,1.025 0.104,1.537 v 0.77 h 1.416 v -0.84 c 0,-0.883 -0.084,-1.731 -0.252,-2.549 -0.17,-0.817 -0.445,-1.537 -0.832,-2.162 0.064,-0.049 0.148,-0.092 0.254,-0.133 0.103,-0.039 0.22,-0.059 0.349,-0.059 0.336,0 0.577,0.104 0.721,0.311 z"
             style="fill:#009ba4;fill-opacity:1;fill-rule:nonzero;stroke:none"
             id="path8942"
             inkscape:connector-curvature="0" /></g><g
           id="g8944"
           transform="translate(203.2773,45.7461)"><path
             d="m 0,0 h 1.535 v -3.313 c 0,-0.896 -0.211,-1.617 -0.635,-2.16 -0.423,-0.545 -1.091,-0.816 -2.005,-0.816 -0.911,0 -1.592,0.275 -2.04,0.826 -0.447,0.553 -0.671,1.283 -0.671,2.193 v 9.202 c 0,0.912 0.224,1.65 0.671,2.216 C -2.697,8.715 -2.016,9 -1.105,9 -0.191,9 0.469,8.723 0.875,8.172 1.283,7.619 1.488,6.887 1.488,5.975 V 2.76 H 0 V 6 C 0,6.416 -0.092,6.74 -0.275,6.971 -0.461,7.203 -0.736,7.32 -1.105,7.32 -1.473,7.32 -1.748,7.199 -1.932,6.959 -2.115,6.719 -2.209,6.391 -2.209,5.975 v -9.239 c 0,-0.896 0.369,-1.345 1.104,-1.345 0.736,0 1.105,0.441 1.105,1.32 z"
             style="fill:#009ba4;fill-opacity:1;fill-rule:nonzero;stroke:none"
             id="path8946"
             inkscape:connector-curvature="0" /></g><g
           id="g8948"
           transform="translate(209.877,47.2578)"><path
             d="m 0,0 c -0.48,-0.176 -0.867,-0.365 -1.164,-0.564 -0.295,-0.2 -0.52,-0.436 -0.672,-0.707 -0.152,-0.274 -0.252,-0.581 -0.299,-0.924 -0.049,-0.346 -0.072,-0.741 -0.072,-1.19 v -1.584 c 0,-0.816 0.375,-1.222 1.127,-1.222 0.24,0 0.461,0.07 0.66,0.214 0.199,0.145 0.34,0.385 0.42,0.721 z m 0.191,-7.584 c -0.031,0.127 -0.054,0.264 -0.07,0.408 -0.017,0.143 -0.025,0.303 -0.025,0.481 -0.401,-0.737 -0.992,-1.106 -1.776,-1.106 -0.674,0 -1.195,0.186 -1.572,0.553 -0.375,0.367 -0.564,0.967 -0.564,1.801 v 2.183 c 0,0.719 0.099,1.323 0.3,1.811 0.2,0.488 0.473,0.9 0.817,1.236 0.344,0.336 0.748,0.621 1.211,0.854 C -1.023,0.867 -0.527,1.096 0,1.32 V 4.561 C 0,4.977 -0.076,5.295 -0.229,5.52 -0.381,5.744 -0.664,5.855 -1.08,5.855 -1.512,5.855 -1.799,5.744 -1.943,5.52 -2.088,5.295 -2.16,4.977 -2.16,4.561 V 1.439 h -1.463 v 3.145 c 0,0.977 0.207,1.715 0.623,2.209 0.416,0.494 1.072,0.742 1.969,0.742 1.744,0 2.615,-0.976 2.615,-2.931 V -5.877 c 0,-0.353 0.008,-0.682 0.023,-0.986 0.018,-0.305 0.049,-0.545 0.098,-0.721 z"
             style="fill:#009ba4;fill-opacity:1;fill-rule:nonzero;stroke:none"
             id="path8950"
             inkscape:connector-curvature="0" /></g><g
           id="g8952"
           transform="translate(213.2852,39.6738)"><path
             d="m 0,0 v 13.393 h -0.721 v 1.462 H 0 v 2.065 c 0,0.928 0.164,1.652 0.492,2.172 0.326,0.519 0.924,0.779 1.787,0.779 0.192,0 0.385,-0.012 0.576,-0.035 0.192,-0.023 0.36,-0.061 0.504,-0.107 v -1.416 c -0.173,0.046 -0.371,0.07 -0.591,0.07 -0.379,0 -0.659,-0.115 -0.84,-0.348 C 1.746,17.803 1.656,17.416 1.656,16.871 V 14.855 H 3.313 V 13.393 H 1.656 L 1.656,0 Z"
             style="fill:#009ba4;fill-opacity:1;fill-rule:nonzero;stroke:none"
             id="path8954"
             inkscape:connector-curvature="0" /></g><g
           id="g8956"
           transform="translate(221.3242,51.7207)"><path
             d="M 0,0 C 0,0.881 -0.367,1.32 -1.104,1.32 -1.791,1.32 -2.135,0.881 -2.135,0 V -3.574 H 0 Z M -2.279,3.697 0.408,7.561 H 2.545 L -0.695,3.697 Z M 0,-6 h 1.561 v -3.264 c 0,-2 -0.889,-3 -2.665,-3 -1.712,0 -2.568,1 -2.568,3 V 0 c 0,1.01 0.221,1.77 0.66,2.281 0.44,0.512 1.076,0.768 1.908,0.768 1.776,0 2.665,-1.016 2.665,-3.049 v -4.775 h -3.696 v -4.489 c 0,-0.879 0.344,-1.32 1.031,-1.32 0.737,0 1.104,0.441 1.104,1.32 z"
             style="fill:#009ba4;fill-opacity:1;fill-rule:nonzero;stroke:none"
             id="path8958"
             inkscape:connector-curvature="0" /></g><g
           id="g8960"
           transform="translate(94.6094,60.416)"><path
             d="m 0,0 c -3.726,0.305 -6.65,1.854 -8.778,4.646 -2.129,2.792 -3.591,6.489 -4.39,11.086 -0.305,1.633 -0.504,3.307 -0.599,5.016 -0.094,1.711 -0.161,3.41 -0.2,5.102 -0.037,1.691 -0.055,3.363 -0.055,5.015 0,1.655 -0.021,3.258 -0.058,4.817 -1.141,-0.153 -2.129,-0.94 -2.965,-2.366 -0.836,-1.423 -1.547,-3.173 -2.137,-5.244 -0.589,-2.07 -1.074,-4.312 -1.453,-6.724 -0.381,-2.414 -0.713,-4.696 -0.998,-6.842 -0.285,-2.147 -0.521,-4.008 -0.713,-5.586 -0.189,-1.576 -0.38,-2.535 -0.568,-2.877 -0.23,-0.533 -0.608,-0.951 -1.142,-1.254 -0.532,-0.305 -1.11,-0.484 -1.737,-0.543 -0.627,-0.057 -1.254,0 -1.881,0.172 -0.627,0.17 -1.132,0.465 -1.512,0.883 -0.912,0.988 -1.615,2.308 -2.109,3.963 -0.494,1.652 -0.778,3.314 -0.853,4.986 -0.153,4.027 -0.449,8.141 -0.884,12.34 -0.439,4.199 -1.093,8.238 -1.966,12.113 -0.268,-0.189 -0.543,-0.39 -0.828,-0.599 -0.284,-0.209 -0.57,-0.512 -0.855,-0.911 -0.284,-0.4 -0.59,-0.922 -0.911,-1.568 -0.324,-0.646 -0.656,-1.482 -0.998,-2.508 -0.265,-0.799 -0.514,-1.9 -0.74,-3.306 -0.23,-1.407 -0.428,-2.963 -0.6,-4.674 -0.171,-1.709 -0.322,-3.496 -0.455,-5.358 -0.135,-1.861 -0.248,-3.638 -0.343,-5.33 -0.094,-1.691 -0.17,-3.211 -0.227,-4.558 -0.057,-1.35 -0.106,-2.387 -0.144,-3.108 -0.038,-0.57 -0.333,-1.035 -0.882,-1.396 -0.551,-0.362 -1.189,-0.561 -1.911,-0.598 -0.72,-0.039 -1.444,0.094 -2.166,0.399 -0.72,0.302 -1.254,0.816 -1.594,1.539 -0.534,1.062 -0.875,2.252 -1.028,3.562 -0.152,1.311 -0.199,2.65 -0.141,4.018 0.056,1.369 0.19,2.716 0.399,4.047 0.207,1.33 0.407,2.584 0.599,3.763 0.151,1.026 0.379,2.346 0.682,3.961 0.305,1.615 0.695,3.307 1.169,5.072 0.476,1.768 1.056,3.506 1.74,5.217 0.683,1.709 1.501,3.182 2.451,4.416 0.949,1.235 2.059,2.119 3.334,2.651 1.273,0.533 2.708,0.513 4.302,-0.057 1.028,-0.381 1.901,-1.217 2.624,-2.508 0.72,-1.293 1.31,-2.849 1.765,-4.674 0.457,-1.824 0.809,-3.81 1.055,-5.957 0.248,-2.146 0.429,-4.246 0.543,-6.299 0.113,-2.05 0.179,-3.951 0.199,-5.699 0.019,-1.748 0.047,-3.135 0.086,-4.16 0.304,0.797 0.654,1.889 1.054,3.277 0.399,1.387 0.854,2.926 1.368,4.618 0.513,1.689 1.082,3.437 1.709,5.244 0.628,1.802 1.32,3.533 2.082,5.185 0.76,1.655 1.576,3.145 2.451,4.475 0.873,1.33 1.804,2.338 2.793,3.021 0.986,0.684 2.041,0.979 3.162,0.883 1.121,-0.095 2.31,-0.732 3.564,-1.908 0.835,-0.799 1.528,-2.082 2.08,-3.848 0.549,-1.767 1.026,-3.771 1.424,-6.013 0.399,-2.243 0.75,-4.6 1.055,-7.069 0.303,-2.47 0.616,-4.787 0.941,-6.953 0.323,-2.166 0.673,-4.058 1.053,-5.672 C -2.756,7.705 -2.262,6.611 -1.653,6.043 -0.742,5.131 0.131,4.551 0.969,4.305 1.804,4.057 2.545,3.914 3.19,3.877 3.836,3.84 4.396,3.818 4.873,3.818 5.348,3.818 5.68,3.611 5.869,3.191 6.021,2.85 5.975,2.479 5.729,2.08 5.479,1.682 5.09,1.32 4.56,0.998 4.026,0.676 3.361,0.408 2.563,0.199 1.767,-0.008 0.91,-0.076 0,0"
             style="fill:#8b4836;fill-opacity:1;fill-rule:nonzero;stroke:none"
             id="path8962"
             inkscape:connector-curvature="0" /></g><g
           id="g8964"
           transform="translate(110.5117,89.0879)"><path
             d="m 0,0 c -0.115,-0.494 -0.438,-0.904 -0.97,-1.227 -0.532,-0.322 -1.139,-0.654 -1.823,-0.996 -0.686,-0.343 -1.389,-0.722 -2.109,-1.14 -0.723,-0.418 -1.33,-0.969 -1.825,-1.653 -0.759,-1.103 -1.293,-2.414 -1.595,-3.933 -0.305,-1.522 -0.449,-2.975 -0.428,-4.362 0.02,-1.386 0.189,-2.584 0.514,-3.589 0.322,-1.008 0.73,-1.512 1.224,-1.512 0.609,0 1.244,0.285 1.909,0.855 0.665,0.571 1.263,1.225 1.796,1.967 0.533,0.74 0.969,1.5 1.311,2.279 0.343,0.78 0.514,1.377 0.514,1.797 0,0.416 -0.02,0.996 -0.057,1.739 -0.039,0.74 -0.028,1.47 0.027,2.193 0.059,0.723 0.172,1.35 0.342,1.881 0.172,0.533 0.465,0.816 0.885,0.855 0.418,0.037 0.92,0.133 1.511,0.285 0.587,0.153 1.147,0.172 1.68,0.057 0.532,-0.113 0.959,-0.484 1.282,-1.111 0.324,-0.627 0.447,-1.701 0.372,-3.221 -0.115,-3.078 0.038,-5.406 0.456,-6.982 0.418,-1.577 1.234,-2.498 2.451,-2.764 0.836,-0.152 1.586,0.047 2.252,0.598 0.664,0.55 1.261,1.168 1.795,1.853 0.531,0.684 0.988,1.301 1.367,1.852 0.381,0.55 0.684,0.769 0.912,0.656 0.267,-0.115 0.36,-0.59 0.285,-1.426 -0.076,-0.836 -0.361,-1.777 -0.854,-2.82 -0.495,-1.047 -1.226,-2.092 -2.196,-3.137 -0.967,-1.045 -2.214,-1.851 -3.733,-2.422 -0.797,-0.304 -1.539,-0.455 -2.223,-0.455 -0.683,0 -1.301,0.094 -1.851,0.285 -0.553,0.19 -1.036,0.455 -1.454,0.797 -0.418,0.342 -0.798,0.721 -1.14,1.141 -0.762,0.949 -1.369,2.127 -1.824,3.533 -0.381,-0.912 -0.912,-1.709 -1.596,-2.394 -0.57,-0.608 -1.311,-1.168 -2.224,-1.68 -0.912,-0.514 -2.034,-0.809 -3.362,-0.885 -1.332,-0.037 -2.586,0.379 -3.763,1.254 -1.177,0.875 -2.118,2.053 -2.821,3.535 -0.703,1.481 -1.084,3.201 -1.141,5.158 -0.056,1.957 0.372,4.018 1.284,6.184 0.607,1.406 1.404,2.603 2.394,3.592 0.988,0.988 2.041,1.795 3.162,2.422 1.12,0.627 2.243,1.084 3.365,1.369 1.12,0.285 2.128,0.445 3.02,0.484 0.893,0.037 1.614,-0.029 2.166,-0.199 C -0.162,0.541 0.074,0.303 0,0"
             style="fill:#8b4836;fill-opacity:1;fill-rule:nonzero;stroke:none"
             id="path8966"
             inkscape:connector-curvature="0" /></g><g
           id="g8968"
           transform="translate(131.9434,77.1738)"><path
             d="M 0,0 C 0.76,0.988 1.52,1.748 2.279,2.281 2.926,2.697 3.637,2.926 4.416,2.965 5.195,3.002 5.945,2.508 6.668,1.482 7.695,2.471 8.217,3.4 8.236,4.275 8.254,5.148 7.885,5.795 7.125,6.213 6.479,6.594 5.775,6.65 5.016,6.385 4.256,6.119 3.533,5.662 2.85,5.016 2.166,4.369 1.566,3.6 1.055,2.707 0.541,1.814 0.188,0.912 0,0 m -1.597,11.172 c -0.039,0.037 0.095,0.457 0.4,1.254 0.302,0.799 0.674,1.797 1.111,2.994 0.436,1.195 0.873,2.508 1.311,3.932 0.437,1.425 0.779,2.765 1.027,4.019 0.246,1.254 0.359,2.346 0.342,3.277 -0.022,0.93 -0.278,1.491 -0.772,1.682 -0.607,0.227 -1.101,-0.039 -1.48,-0.799 -0.381,-0.76 -0.696,-1.777 -0.942,-3.049 -0.248,-1.273 -0.437,-2.689 -0.57,-4.246 -0.133,-1.558 -0.226,-3.013 -0.283,-4.361 -0.059,-1.35 -0.096,-2.48 -0.114,-3.391 -0.021,-0.912 -0.03,-1.349 -0.03,-1.312 m 0.798,-5.358 c 0.153,0.342 0.578,0.874 1.281,1.596 0.704,0.723 1.539,1.406 2.51,2.053 0.969,0.644 2.004,1.187 3.106,1.625 1.101,0.435 2.129,0.541 3.078,0.312 1.33,-0.304 2.431,-0.808 3.306,-1.509 C 13.355,9.186 13.908,8.074 14.135,6.555 14.25,5.719 14.145,4.873 13.822,4.02 13.498,3.164 13.014,2.355 12.369,1.596 11.723,0.836 10.973,0.152 10.117,-0.455 9.262,-1.064 8.379,-1.502 7.467,-1.766 7.352,-1.805 7.361,-2.08 7.494,-2.594 7.627,-3.105 7.875,-3.695 8.236,-4.359 8.598,-5.025 9.072,-5.682 9.66,-6.326 c 0.59,-0.647 1.283,-1.141 2.082,-1.483 0.873,-0.38 1.709,-0.504 2.508,-0.371 0.797,0.133 1.539,0.409 2.223,0.826 0.683,0.418 1.3,0.913 1.851,1.483 0.551,0.57 1.028,1.121 1.426,1.654 0.398,0.531 0.721,0.977 0.969,1.338 0.246,0.361 0.408,0.543 0.484,0.543 0.342,-0.078 0.514,-0.428 0.514,-1.055 0,-0.627 -0.143,-1.379 -0.428,-2.252 -0.285,-0.875 -0.723,-1.804 -1.31,-2.793 -0.59,-0.988 -1.284,-1.89 -2.083,-2.707 -0.796,-0.818 -1.699,-1.472 -2.707,-1.966 -1.005,-0.495 -2.099,-0.684 -3.277,-0.571 -1.443,0.114 -2.642,0.467 -3.59,1.055 -0.951,0.588 -1.72,1.283 -2.308,2.08 -0.59,0.799 -1.047,1.635 -1.369,2.508 -0.323,0.875 -0.551,1.691 -0.684,2.451 -0.133,0.76 -0.238,1.377 -0.315,1.854 C 3.57,-3.258 3.496,-3.041 3.42,-3.078 2.963,-3.23 2.498,-3.334 2.021,-3.391 1.547,-3.447 1.129,-3.477 0.77,-3.477 h -1.227 c -0.076,-1.482 -0.152,-2.849 -0.229,-4.103 -0.076,-1.254 -0.132,-2.262 -0.169,-3.022 0,-0.722 -0.256,-1.283 -0.77,-1.681 -0.514,-0.399 -1.094,-0.588 -1.738,-0.571 -0.648,0.02 -1.303,0.278 -1.967,0.77 -0.666,0.494 -1.168,1.273 -1.51,2.338 -0.191,0.607 -0.343,1.709 -0.457,3.305 -0.113,1.597 -0.189,3.459 -0.227,5.586 -0.039,2.128 -0.048,4.398 -0.03,6.812 0.019,2.412 0.068,4.731 0.144,6.953 0.076,2.225 0.17,4.248 0.285,6.072 0.113,1.823 0.266,3.192 0.455,4.104 0.305,1.709 0.789,3.135 1.453,4.275 0.665,1.139 1.415,2.032 2.252,2.678 0.836,0.647 1.711,1.055 2.621,1.227 0.912,0.17 1.768,0.123 2.567,-0.143 1.748,-0.57 2.935,-1.492 3.562,-2.766 C 6.412,27.084 6.686,25.621 6.611,23.969 6.535,22.316 6.174,20.568 5.529,18.725 4.883,16.881 4.16,15.115 3.361,13.424 2.564,11.732 1.766,10.213 0.969,8.863 0.17,7.516 -0.42,6.498 -0.799,5.814"
             style="fill:#8b4836;fill-opacity:1;fill-rule:nonzero;stroke:none"
             id="path8970"
             inkscape:connector-curvature="0" /></g><g
           id="g8972"
           transform="translate(166.2559,89.0879)"><path
             d="m 0,0 c -0.113,-0.494 -0.438,-0.904 -0.969,-1.227 -0.533,-0.322 -1.14,-0.654 -1.824,-0.996 -0.686,-0.343 -1.387,-0.722 -2.109,-1.14 -0.721,-0.418 -1.33,-0.969 -1.823,-1.653 -0.761,-1.103 -1.293,-2.414 -1.597,-3.933 -0.305,-1.522 -0.448,-2.975 -0.428,-4.362 0.02,-1.386 0.191,-2.584 0.514,-3.589 0.322,-1.008 0.732,-1.512 1.226,-1.512 0.608,0 1.244,0.285 1.908,0.855 0.664,0.571 1.264,1.225 1.797,1.967 0.532,0.74 0.969,1.5 1.311,2.279 0.342,0.78 0.512,1.377 0.512,1.797 0,0.416 -0.02,0.996 -0.057,1.739 -0.037,0.74 -0.027,1.47 0.029,2.193 0.057,0.723 0.17,1.35 0.342,1.881 0.17,0.533 0.465,0.816 0.883,0.855 0.418,0.037 0.922,0.133 1.512,0.285 0.587,0.153 1.148,0.172 1.681,0.057 0.53,-0.113 0.959,-0.484 1.281,-1.111 0.323,-0.627 0.448,-1.701 0.372,-3.221 -0.114,-3.078 0.037,-5.406 0.455,-6.982 0.418,-1.577 1.234,-2.498 2.451,-2.764 0.836,-0.152 1.586,0.047 2.252,0.598 0.664,0.55 1.263,1.168 1.795,1.853 0.533,0.684 0.988,1.301 1.369,1.852 0.379,0.55 0.683,0.769 0.912,0.656 0.266,-0.115 0.359,-0.59 0.285,-1.426 -0.078,-0.836 -0.361,-1.777 -0.855,-2.82 -0.496,-1.047 -1.227,-2.092 -2.196,-3.137 -0.968,-1.045 -2.213,-1.851 -3.732,-2.422 -0.799,-0.304 -1.539,-0.455 -2.223,-0.455 -0.685,0 -1.303,0.094 -1.853,0.285 -0.551,0.19 -1.035,0.455 -1.453,0.797 -0.418,0.342 -0.799,0.721 -1.141,1.141 -0.76,0.949 -1.367,2.127 -1.824,3.533 -0.379,-0.912 -0.912,-1.709 -1.596,-2.394 -0.57,-0.608 -1.311,-1.168 -2.223,-1.68 -0.912,-0.514 -2.033,-0.809 -3.363,-0.885 -1.33,-0.037 -2.584,0.379 -3.762,1.254 -1.177,0.875 -2.119,2.053 -2.822,3.535 -0.703,1.481 -1.082,3.201 -1.141,5.158 -0.054,1.957 0.372,4.018 1.284,6.184 0.607,1.406 1.406,2.603 2.394,3.592 0.988,0.988 2.043,1.795 3.164,2.422 1.119,0.627 2.241,1.084 3.364,1.369 1.119,0.285 2.127,0.445 3.019,0.484 0.893,0.037 1.615,-0.029 2.166,-0.199 C -0.162,0.541 0.076,0.303 0,0"
             style="fill:#8b4836;fill-opacity:1;fill-rule:nonzero;stroke:none"
             id="path8974"
             inkscape:connector-curvature="0" /></g><g
           id="g8976"
           transform="translate(184.8945,81.1074)"><path
             d="m 0,0 c 0.988,1.633 1.9,3.324 2.736,5.072 0.721,1.483 1.426,3.108 2.11,4.875 0.683,1.766 1.177,3.504 1.482,5.215 0.151,0.836 0.293,1.69 0.428,2.565 0.131,0.875 0.189,1.681 0.17,2.421 -0.02,0.743 -0.162,1.37 -0.428,1.883 -0.266,0.512 -0.703,0.807 -1.31,0.883 C 4.389,22.99 3.678,22.715 3.051,22.088 2.424,21.461 1.891,20.586 1.453,19.465 1.018,18.344 0.664,17.014 0.4,15.475 0.133,13.936 -0.057,12.303 -0.17,10.574 -0.285,8.844 -0.322,7.068 -0.285,5.244 -0.248,3.42 -0.152,1.672 0,0 M 11.002,18.354 C 10.85,16.645 10.582,15.01 10.203,13.451 9.822,11.893 9.377,10.412 8.863,9.006 8.352,7.6 7.789,6.27 7.182,5.016 6.574,3.762 5.967,2.621 5.359,1.596 3.914,-0.836 2.318,-3.041 0.57,-5.016 c 0,-0.267 0.057,-0.609 0.172,-1.027 0.074,-0.379 0.227,-0.846 0.455,-1.396 0.229,-0.551 0.59,-1.207 1.084,-1.965 0.987,-1.598 2.08,-2.594 3.278,-2.994 1.197,-0.399 2.355,-0.436 3.476,-0.114 1.121,0.323 2.1,0.893 2.936,1.711 0.836,0.817 1.404,1.643 1.709,2.479 0.304,0.873 0.607,1.443 0.912,1.711 0.304,0.263 0.58,0.332 0.826,0.199 0.248,-0.135 0.436,-0.41 0.57,-0.826 0.133,-0.42 0.18,-0.875 0.143,-1.369 -0.647,-1.709 -1.463,-3.211 -2.451,-4.502 -0.418,-0.571 -0.912,-1.121 -1.481,-1.655 -0.57,-0.531 -1.197,-1.007 -1.881,-1.424 -0.685,-0.417 -1.435,-0.75 -2.252,-0.998 -0.818,-0.246 -1.701,-0.351 -2.65,-0.314 -2.434,0.039 -4.457,0.627 -6.07,1.768 -1.617,1.14 -2.918,2.603 -3.905,4.388 -0.99,1.787 -1.691,3.811 -2.109,6.071 -0.42,2.261 -0.656,4.55 -0.713,6.869 -0.057,2.318 0.037,4.55 0.285,6.697 0.246,2.146 0.541,4.02 0.883,5.615 0.379,1.672 0.885,3.324 1.512,4.959 0.627,1.633 1.404,3.078 2.336,4.332 0.931,1.254 2.033,2.242 3.306,2.963 1.272,0.723 2.764,0.988 4.475,0.799 1.254,-0.191 2.336,-0.627 3.248,-1.311 0.76,-0.57 1.406,-1.435 1.938,-2.593 0.533,-1.161 0.666,-2.727 0.4,-4.703"
             style="fill:#8b4836;fill-opacity:1;fill-rule:nonzero;stroke:none"
             id="path8978"
             inkscape:connector-curvature="0" /></g><g
           id="g8980"
           transform="translate(212.9395,99.4043)"><path
             d="m 0,0 c -0.42,-0.305 -0.941,-0.627 -1.568,-0.969 -0.627,-0.342 -1.264,-0.619 -1.911,-0.826 -0.646,-0.209 -1.244,-0.314 -1.794,-0.314 -0.551,0 -0.922,0.173 -1.112,0.513 -0.189,0.379 0,1.026 0.571,1.938 0.57,0.912 1.33,1.795 2.279,2.65 0.949,0.856 1.957,1.529 3.021,2.024 C 0.551,5.51 1.461,5.529 2.223,5.072 2.602,4.73 2.764,4.322 2.707,3.848 2.65,3.371 2.479,2.896 2.193,2.422 1.908,1.947 1.557,1.49 1.139,1.055 0.721,0.617 0.342,0.266 0,0 m -7.695,-12.313 c -0.039,-0.378 -0.076,-1.025 -0.114,-1.937 -0.039,-0.912 -0.058,-1.936 -0.058,-3.078 0,-1.141 0.037,-2.318 0.115,-3.533 0.074,-1.217 0.207,-2.328 0.397,-3.336 0.191,-1.006 0.476,-1.834 0.857,-2.479 0.379,-0.646 0.873,-0.951 1.482,-0.912 0.453,0 0.93,0.293 1.424,0.883 0.494,0.59 0.959,1.32 1.397,2.195 0.437,0.873 0.845,1.824 1.226,2.85 0.379,1.025 0.711,1.996 0.996,2.906 0.286,0.912 0.504,1.682 0.657,2.309 0.15,0.627 0.228,0.978 0.228,1.054 0.037,0.457 0.399,0.866 1.082,1.227 0.684,0.359 1.434,0.578 2.252,0.654 0.817,0.076 1.596,-0.027 2.336,-0.312 0.742,-0.285 1.17,-0.826 1.283,-1.625 0.076,-0.571 0.094,-1.377 0.057,-2.422 -0.037,-1.047 -0.084,-2.186 -0.143,-3.42 -0.056,-1.236 -0.066,-2.508 -0.027,-3.82 0.037,-1.311 0.199,-2.489 0.484,-3.534 0.284,-1.045 0.721,-1.9 1.311,-2.564 0.588,-0.666 1.416,-0.979 2.48,-0.941 0.911,0.037 1.596,0.228 2.051,0.57 0.457,0.342 0.826,0.703 1.111,1.084 0.286,0.379 0.551,0.683 0.799,0.912 0.246,0.227 0.616,0.227 1.112,0 0.113,-0.078 0.17,-0.305 0.17,-0.686 0,-0.378 -0.104,-0.826 -0.313,-1.339 -0.209,-0.512 -0.533,-1.045 -0.969,-1.596 -0.437,-0.551 -1.008,-1.035 -1.711,-1.453 -0.703,-0.418 -1.558,-0.721 -2.564,-0.912 -1.008,-0.19 -2.195,-0.17 -3.563,0.056 -0.988,0.153 -1.824,0.41 -2.507,0.77 -0.684,0.361 -1.274,0.779 -1.768,1.254 -0.494,0.474 -0.883,0.998 -1.168,1.568 -0.285,0.57 -0.504,1.141 -0.656,1.709 -0.379,1.33 -0.475,2.795 -0.285,4.391 -0.495,-1.522 -1.139,-2.832 -1.938,-3.934 -0.683,-0.988 -1.566,-1.834 -2.65,-2.537 -1.082,-0.703 -2.405,-0.939 -3.961,-0.713 -1.559,0.229 -2.842,0.734 -3.848,1.512 -1.008,0.777 -1.824,1.719 -2.451,2.82 -0.627,1.104 -1.094,2.309 -1.398,3.621 -0.303,1.311 -0.512,2.631 -0.625,3.961 -0.114,1.063 -0.172,2.127 -0.172,3.192 0,1.064 0.039,2.052 0.115,2.964 0.076,0.913 0.189,1.69 0.342,2.336 0.15,0.647 0.322,1.065 0.513,1.254 0.227,0.192 0.702,0.401 1.424,0.627 0.721,0.229 1.473,0.352 2.252,0.371 0.777,0.02 1.473,-0.105 2.08,-0.371 0.608,-0.265 0.893,-0.797 0.856,-1.596"
             style="fill:#8b4836;fill-opacity:1;fill-rule:nonzero;stroke:none"
             id="path8982"
             inkscape:connector-curvature="0" /></g><g
           id="g8984"
           transform="translate(76.5918,39.6523)"><path
             d="M 0,0 C 0.013,0.021 -0.322,0.041 0.197,0.049 1.846,0.037 3.146,0.027 4.795,0.014 L 4.912,0.047 C 6.176,0.029 7.506,0.012 8.853,-0.006 11.334,0 13.806,0.006 16.271,0.01 c -0.064,0.011 -0.093,0.023 0.151,0.027 1.037,-0.002 2.445,-0.006 3.912,-0.01 0.218,0 0.436,0.002 0.648,0.004 0.166,0.008 0.21,0.018 0.238,0.026 0.661,-0.004 1.253,-0.006 1.801,-0.01 7.2,0.06 14.544,0.123 22.481,0.189 1.707,0.024 3.404,0.047 4.977,0.069 2.406,-0.008 5.457,-0.016 7.791,-0.022 -0.358,0.115 5.339,0.166 4.203,0.283 1.556,-0.003 3.896,-0.009 4.015,0.022 0.364,0.1 1.563,0.209 5.701,0.266 C 73.816,0.848 76.176,0.84 76.863,0.838 77.764,0.869 74.766,0.91 75.664,0.939 63.613,0.951 52.041,0.963 39.928,0.975 35.803,0.928 7.984,0.938 0.84,0.967 H 0.19 c -3.897,0.012 -8.63,0.008 -11.929,-0.033 -1.491,-0.028 -3.044,-0.057 -4.583,-0.086 0.695,-0.022 1.351,-0.041 1.943,-0.059 -1.559,0.004 -3.119,0.008 -3.718,-0.012 -3.319,-0.047 -1.438,-0.105 -0.163,-0.185 0.92,-0.035 -0.322,-0.088 1.115,-0.123 -1.037,0.002 -1.554,0.004 -2.597,0.006 -0.118,-0.032 3.201,0.013 2.478,-0.037 -1.023,-0.002 -2.123,-0.004 -3.156,-0.004 0.359,-0.045 3.598,-0.022 3.438,-0.065 -0.561,-0.01 -2.917,0.063 -3.12,0.008 -0.04,-0.01 0.999,-0.014 1.52,-0.014 -3.197,-0.013 -4.959,-0.064 -2.041,-0.127 -1.006,0.008 -2.443,0.016 -3.518,0.022 h 0.008 c 0.53,-0.004 1.463,-0.012 1.951,-0.016 l -1.824,0.004 c 0.104,-0.008 0.209,-0.016 0.319,-0.023 0.463,-0.004 0.918,-0.01 1.383,-0.014 l -1.212,0.004 c 0.332,-0.018 0.678,-0.035 1.034,-0.053 1.439,-0.037 2.818,-0.09 3.595,-0.092 C -12.586,0.045 -6.272,0.021 0,0"
             style="fill:#009ba4;fill-opacity:1;fill-rule:nonzero;stroke:none"
             id="path8986"
             inkscape:connector-curvature="0" /></g></g></g></g></svg>